{"title":"X-Men Origins Wolverine (2009)1080p BDRip[Hindi-Thai-Eng-Tamil]D","uid":9132096,"size":3188025087,"categoryP":"video","categoryS":"hd___movies","magnet":"?xt=urn:btih:8e31931fd64aec381e00b304e20166f0bad720ac&amp;dn=X-Men+Origins+Wolverine+%282009%291080p+BDRip%5BHindi-Thai-Eng-Tamil%5DD&amp;tr=udp%3A%2F%2Ftracker.openbittorrent.com%3A80&amp;tr=udp%3A%2F%2Fopen.demonii.com%3A1337&amp;tr=udp%3A%2F%2Ftracker.coppersurfer.tk%3A6969&amp;tr=udp%3A%2F%2Fexodus.desync.com%3A6969","seeders":1,"leechers":1,"uploader":"DGrea8","files":-1,"time":1383341435,"description":"  X-Men Origins Wolverine (2009)1080p BDRip[Hindi-Thai-Eng-Tamil]DD5.1-DGrea8\n\n\nStoryline:-\n\nTwo mutant brothers, Logan and Victor, born 200 years ago, suffer childhood trauma and have only each other to depend on. Basically, they're fighters and killers, living from war to war through U.S. history. In modern times, a U.S. colonel, Stryker, recruits them and other mutants as commandos. Logan quits and becomes a logger, falling in love with a local teacher. When Logan refuses to rejoin Stryker's crew, the colonel sends the murderous Victor. Logan now wants revenge.\n\n\nCast Info:-\n \nHugh Jackman\t ...\tLogan / Wolverine\nLiev Schreiber\t ...\tVictor Creed\nDanny Huston\t ...\tStryker\nWill i Am\t ...\tJohn Wraith (as Will.i.am)\nLynn Collins\t ...\tKayla Silverfox\nKevin Durand\t ...\tFred Dukes\nDominic Monaghan\t ...\tChris Bradley / Bolt\nTaylor Kitsch\t ...\tRemy LeBeau\nDaniel Henney\t ...\tAgent Zero\nRyan Reynolds\t ...\tWade Wilson\nTim Pocock\t ...\tScott Summers\nJulia Blake\t ...\tHeather Hudson\nMax Cullen\t ...\tTravis Hudson\nTroye Sivan\t ...\tYoung James\nMichael-James Olsen\t ...\tYoung Victor\n\n\nGeneral Info:. \n\nDirector:Gavin Hood\nWriters:David Benioff (screenplay), Skip Woods (screenplay)\nStars: Hugh Jackman, Liev Schreiber, Ryan Reynolds\nRelease Date:1 May 2009 (USA)\nGenres: Action | Adventure | Sci-Fi\n\n\n\nVideo Info:. \n\nVideo\nID : 1\nFormat : AVC\nFormat/Info : Advanced Video Codec\nFormat profile : &lt;a class=&quot;__cf_email__&quot; href=&quot;/cdn-cgi/l/email-protection&quot; data-cfemail=&quot;1d55747a755d5129332d&quot;&gt;[email&amp;#160;protected]&lt;/a&gt;&lt;script cf-hash='f9e31' type=&quot;text/javascript&quot;&gt;\n/* &lt;![CDATA[ */!function(){try{var t=&quot;currentScript&quot;in document?document.currentScript:function(){for(var t=document.getElementsByTagName(&quot;script&quot;),e=t.length;e--;)if(t[e].getAttribute(&quot;cf-hash&quot;))return t[e]}();if(t&amp;&amp;t.previousSibling){var e,r,n,i,c=t.previousSibling,a=c.getAttribute(&quot;data-cfemail&quot;);if(a){for(e=&quot;&quot;,r=parseInt(a.substr(0,2),16),n=2;a.length-n;n+=2)i=parseInt(a.substr(n,2),16)^r,e+=String.fromCharCode(i);e=document.createTextNode(e),c.parentNode.replaceChild(e,c)}}}catch(u){}}();/* ]]&gt; */&lt;/script&gt;\nFormat settings, CABAC : Yes\nFormat settings, ReFrames : 5 frames\nMuxing mode : Header stripping\nCodec ID : V_MPEG4/ISO/AVC\nDuration : 1h 47mn\nBit rate : 1 704 Kbps\nWidth : 1 920 pixels\nHeight : 818 pixels\nDisplay aspect ratio : 2.35:1\nFrame rate mode : Constant\nFrame rate : 23.976 fps\nColor space : YUV\nChroma subsampling : 4:2:0\nBit depth : 8 bits\nScan type : Progressive\n\nAudio Info:. \n\nAudio #1\nID : 2\nFormat : AC-3\nFormat/Info : Audio Coding 3\nMode extension : CM (complete main)\nFormat settings, Endianness : Big\nMuxing mode : Header stripping\nCodec ID : A_AC3\nDuration : 1h 47mn\nBit rate mode : Constant\nBit rate : 448 Kbps\nChannel(s) : 6 channels\nChannel positions : Front: L C R, Side: L R, LFE\nSampling rate : 48.0 KHz\nBit depth : 16 bits\nCompression mode : Lossy\nStream size : 344 MiB (17%)\nLanguage : Hindi\n\n\nAudio #2\nID : 3\nFormat : AC-3\nFormat/Info : Audio Coding 3\nMode extension : CM (complete main)\nFormat settings, Endianness : Big\nMuxing mode : Header stripping\nCodec ID : A_AC3\nDuration : 1h 47mn\nBit rate mode : Constant\nBit rate : 448 Kbps\nChannel(s) : 6 channels\nChannel positions : Front: L C R, Side: L R, LFE\nSampling rate : 48.0 KHz\nBit depth : 16 bits\nCompression mode : Lossy\nDelay relative to video : 1s 0ms\nStream size : 344 MiB (17%)\nLanguage : English\nDefault : Yes\nForced : No\n\nAudio\nID : 4\nFormat : AC-3\nFormat/Info : Audio Coding 3\nMode extension : CM (complete main)\nFormat settings, Endianness : Big\nMuxing mode : Header stripping\nCodec ID : A_AC3\nDuration : 1h 47mn\nBit rate mode : Constant\nBit rate : 384 Kbps\nChannel(s) : 6 channels\nChannel positions : Front: L C R, Side: L R, LFE\nSampling rate : 48.0 KHz\nBit depth : 16 bits\nCompression mode : Lossy\nStream size : 295 MiB (100%)\nLanguage : Tamil\n\nAudio\nID : 5\nFormat : AC-3\nFormat/Info : Audio Coding 3\nMode extension : CM (complete main)\nFormat settings, Endianness : Big\nMuxing mode : Header stripping\nCodec ID : A_AC3\nDuration : 1h 47mn\nBit rate mode : Constant\nBit rate : 384 Kbps\nChannel(s) : 6 channels\nChannel positions : Front: L C R, Side: L R, LFE\nSampling rate : 48.0 KHz\nBit depth : 16 bits\nCompression mode : Lossy\nStream size : 295 MiB (100%)\nLanguage : Thai\n\nSubtitle : English,Thai\n\n\nScreen Shoots:-\n  &lt;a href=&quot;\nhttp://img203.imageshack.us/img203/3158/cw0d.jpg&quot; rel=&quot;nofollow&quot; target=&quot;_NEW&quot;&gt;\nhttp://img203.imageshack.us/img203/3158/cw0d.jpg&lt;/a&gt;\n &lt;a href=&quot;\nhttp://img837.imageshack.us/img837/1413/lau0.jpg&quot; rel=&quot;nofollow&quot; target=&quot;_NEW&quot;&gt;\nhttp://img837.imageshack.us/img837/1413/lau0.jpg&lt;/a&gt;\n &lt;a href=&quot;\nhttp://img23.imageshack.us/img23/457/z4e9.jpg&quot; rel=&quot;nofollow&quot; target=&quot;_NEW&quot;&gt;\nhttp://img23.imageshack.us/img23/457/z4e9.jpg&lt;/a&gt;\n &lt;a href=&quot;\nhttp://img23.imageshack.us/img23/302/ddbi.jpg&quot; rel=&quot;nofollow&quot; target=&quot;_NEW&quot;&gt;\nhttp://img23.imageshack.us/img23/302/ddbi.jpg&lt;/a&gt;\n &lt;a href=&quot;\nhttp://img716.imageshack.us/img716/1038/fgh0.jpg&quot; rel=&quot;nofollow&quot; target=&quot;_NEW&quot;&gt;\nhttp://img716.imageshack.us/img716/1038/fgh0.jpg&lt;/a&gt;\n\n\n\nNote:-- Check The Torrent\n\n\nCheck The Sample Video In This Torrent\t","torrent":{"xt":"urn:btih:8e31931fd64aec381e00b304e20166f0bad720ac","amp;dn":"X-Men+Origins+Wolverine+%282009%291080p+BDRip%5BHindi-Thai-Eng-Tamil%5DD","amp;tr":["udp%3A%2F%2Ftracker.openbittorrent.com%3A80","udp%3A%2F%2Fopen.demonii.com%3A1337","udp%3A%2F%2Ftracker.coppersurfer.tk%3A6969","udp%3A%2F%2Fexodus.desync.com%3A6969"],"infoHash":"8e31931fd64aec381e00b304e20166f0bad720ac","infoHashBuffer":{"type":"Buffer","data":[142,49,147,31,214,74,236,56,30,0,179,4,226,1,102,240,186,215,32,172]},"announce":[],"urlList":[]}}